<svg xmlns="http://www.w3.org/2000/svg" width="48" height="48" viewBox="0 0 100 100" fill="none">
  <circle cx="50" cy="50" r="44" stroke="#4CAF50" stroke-width="1.5" opacity="0.25"/>
  <path d="M 50 50 C 53 40, 63 34, 71 39 C 79 44, 79 56, 71 61 C 63 66, 53 60, 50 50 Z" fill="#4CAF50"/>
  <path d="M 50 50 C 53 40, 63 34, 71 39 C 79 44, 79 56, 71 61 C 63 66, 53 60, 50 50 Z" fill="#4CAF50" transform="rotate(120, 50, 50)"/>
  <path d="M 50 50 C 53 40, 63 34, 71 39 C 79 44, 79 56, 71 61 C 63 66, 53 60, 50 50 Z" fill="#4CAF50" transform="rotate(240, 50, 50)"/>
  <circle cx="50" cy="50" r="6" fill="#2E7D32"/>
</svg>
